<svg width="319" height="114" viewBox="0 0 319 114" fill="none" xmlns="http://www.w3.org/2000/svg">
<path fill-rule="evenodd" clip-rule="evenodd" d="M137.257 19.4914L136.351 14.6636L133.091 18.6136L133.709 18.7439C132.085 26.2932 129.23 37.0437 127.095 44.9252C124.62 54.0637 121.221 55.5442 114.725 58.374C113.297 58.9962 111.719 59.6835 109.969 60.5318L-19.5 116.765H31.2394C60.0386 99.3832 118.864 63.8018 123.772 60.5318C130.074 56.3327 131.051 49.95 131.661 45.9568C131.717 45.5918 131.77 45.2468 131.824 44.9252L136.668 19.3672L137.257 19.4914Z" fill="url(#paint0_linear_2_492)"/>
<path fill-rule="evenodd" clip-rule="evenodd" d="M180.853 14.661L182.03 9.74536L185.653 13.6076L184.686 13.8198C186.377 21.6303 190.259 38.0648 192.355 45.8005C194.83 54.9389 198.229 56.4195 204.724 59.2493C206.152 59.8714 207.73 60.5588 209.481 61.4071L338.949 117.64H288.21C259.411 100.258 200.585 64.677 195.678 61.4071C189.375 57.208 188.399 50.8252 187.788 46.8321C187.732 46.4671 187.679 46.1221 187.626 45.8005L181.877 14.4362L180.853 14.661Z" fill="url(#paint1_linear_2_492)"/>
<path fill-rule="evenodd" clip-rule="evenodd" d="M173.241 17.995L174.781 14.6594L176.864 17.7384L176.308 17.7778C176.519 19.472 176.783 21.7814 177.085 24.4164C178.057 32.9131 179.418 44.7961 180.613 50.363C182.425 58.8053 183.889 60.5517 189.188 64.9514L259.807 117.516H228.808C214.619 102.84 189.78 74.286 183.133 66.6446C182.421 65.8259 181.918 65.2472 181.659 64.9514C178.221 61.0263 177.688 55.0599 177.355 51.3273C177.325 50.9861 177.296 50.6636 177.267 50.363L173.746 17.9592L173.241 17.995Z" fill="url(#paint2_linear_2_492)"/>
<path fill-rule="evenodd" clip-rule="evenodd" d="M149.862 12.0253L148.503 8.6897L146.148 11.9375L147.018 11.9581C146.834 13.4479 146.58 15.599 146.28 18.1442C145.09 28.2525 143.167 44.5754 141.925 50.3622C140.112 58.8045 138.648 60.5509 133.35 64.9506L62.7309 117.515H93.7299C107.918 102.84 132.757 74.2852 139.405 66.6438C140.117 65.8251 140.62 65.2464 140.879 64.9506C144.317 61.0255 144.849 55.0592 145.183 51.3265C145.213 50.9853 145.242 50.6628 145.271 50.3622L149.103 12.0074L149.862 12.0253Z" fill="url(#paint3_linear_2_492)"/>
<path fill-rule="evenodd" clip-rule="evenodd" d="M159.64 4.65228L158.1 0L155.927 4.5645L156.834 4.58595C156.004 17.581 154.089 51.7615 153.888 56.4501C153.683 61.2063 152.993 64.2534 151.46 66.7306L120.53 114.294H147.625C150.139 101.825 155.447 75.7477 156.572 71.1896C157.697 66.6315 157.978 59.464 157.978 56.4501L158.903 4.63487L159.64 4.65228Z" fill="url(#paint4_linear_2_492)"/>
<path fill-rule="evenodd" clip-rule="evenodd" d="M163.887 13.4287L165.608 10.0931L167.601 13.341L166.839 13.359C167.65 25.9123 169.309 51.9853 169.513 56.7131C169.717 61.4543 170.407 64.4916 171.939 66.961L202.831 114.373H175.768C173.258 101.944 167.956 75.9496 166.832 71.4059C165.709 66.8622 165.428 59.7175 165.428 56.7131L164.792 13.4074L163.887 13.4287Z" fill="url(#paint5_linear_2_492)"/>
<defs>
<linearGradient id="paint0_linear_2_492" x1="58.8786" y1="70.0902" x2="58.8786" y2="109.472" gradientUnits="userSpaceOnUse">
<stop stop-color="#1263F1" stop-opacity="0"/>
<stop offset="1" stop-color="#1263F1" stop-opacity="0.04"/>
</linearGradient>
<linearGradient id="paint1_linear_2_492" x1="259.901" y1="68.317" x2="259.901" y2="109.934" gradientUnits="userSpaceOnUse">
<stop stop-color="#1263F1" stop-opacity="0"/>
<stop offset="1" stop-color="#1263F1" stop-opacity="0.04"/>
</linearGradient>
<linearGradient id="paint2_linear_2_492" x1="216.524" y1="70.4958" x2="216.524" y2="110.169" gradientUnits="userSpaceOnUse">
<stop stop-color="#1263F1" stop-opacity="0"/>
<stop offset="1" stop-color="#1263F1" stop-opacity="0.04"/>
</linearGradient>
<linearGradient id="paint3_linear_2_492" x1="106.296" y1="67.7664" x2="106.296" y2="109.742" gradientUnits="userSpaceOnUse">
<stop stop-color="#1263F1" stop-opacity="0"/>
<stop offset="1" stop-color="#1263F1" stop-opacity="0.04"/>
</linearGradient>
<linearGradient id="paint4_linear_2_492" x1="140.085" y1="62.0452" x2="140.085" y2="106.13" gradientUnits="userSpaceOnUse">
<stop stop-color="#1263F1" stop-opacity="0"/>
<stop offset="1" stop-color="#1263F1" stop-opacity="0.04"/>
</linearGradient>
<linearGradient id="paint5_linear_2_492" x1="183.359" y1="66.7024" x2="183.359" y2="106.925" gradientUnits="userSpaceOnUse">
<stop stop-color="#1263F1" stop-opacity="0"/>
<stop offset="1" stop-color="#1263F1" stop-opacity="0.04"/>
</linearGradient>
</defs>
</svg>
